<mxfile host="Electron" agent="Mozilla/5.0 (Windows NT 10.0; Win64; x64) AppleWebKit/537.36 (KHTML, like Gecko) draw.io/26.0.9 Chrome/128.0.6613.186 Electron/32.2.5 Safari/537.36" version="26.0.9">
  <diagram name="Page-1" id="qoiOIPHy6ti_OVRE3UIZ">
    <mxGraphModel dx="2401" dy="1062" grid="1" gridSize="10" guides="1" tooltips="1" connect="1" arrows="1" fold="1" page="1" pageScale="1" pageWidth="850" pageHeight="1100" math="0" shadow="0">
      <root>
        <mxCell id="0" />
        <mxCell id="1" parent="0" />
        <mxCell id="RPcu0X67-Fc-buNzQXgX-81" value="" style="rounded=0;whiteSpace=wrap;html=1;movable=0;resizable=0;rotatable=0;deletable=0;editable=0;locked=1;connectable=0;" vertex="1" parent="1">
          <mxGeometry x="-60" y="50" width="1000" height="1210" as="geometry" />
        </mxCell>
        <mxCell id="RPcu0X67-Fc-buNzQXgX-3" style="edgeStyle=orthogonalEdgeStyle;rounded=0;orthogonalLoop=1;jettySize=auto;html=1;entryX=0;entryY=0.5;entryDx=0;entryDy=0;" edge="1" parent="1" source="RPcu0X67-Fc-buNzQXgX-1" target="RPcu0X67-Fc-buNzQXgX-2">
          <mxGeometry relative="1" as="geometry" />
        </mxCell>
        <mxCell id="RPcu0X67-Fc-buNzQXgX-1" value="&lt;div&gt;#include &amp;lt;msp430.h&amp;gt;, &amp;lt;math.h&amp;gt;&lt;/div&gt;&lt;div&gt;&lt;br&gt;&lt;/div&gt;Set P2.0, P3.0-3.6, P5.3, P6.0-6.2 as outputs&lt;div&gt;Set P2.1, P1.1-1.4 as inputs&lt;/div&gt;" style="shape=document;whiteSpace=wrap;html=1;boundedLbl=1;align=left;" vertex="1" parent="1">
          <mxGeometry x="100" y="80" width="230" height="180" as="geometry" />
        </mxCell>
        <mxCell id="RPcu0X67-Fc-buNzQXgX-9" style="edgeStyle=orthogonalEdgeStyle;rounded=0;orthogonalLoop=1;jettySize=auto;html=1;exitX=0.5;exitY=1;exitDx=0;exitDy=0;entryX=0.5;entryY=0;entryDx=0;entryDy=0;" edge="1" parent="1" source="RPcu0X67-Fc-buNzQXgX-2" target="RPcu0X67-Fc-buNzQXgX-4">
          <mxGeometry relative="1" as="geometry" />
        </mxCell>
        <mxCell id="RPcu0X67-Fc-buNzQXgX-2" value="Main Loop" style="rounded=1;whiteSpace=wrap;html=1;" vertex="1" parent="1">
          <mxGeometry x="425" y="140" width="120" height="60" as="geometry" />
        </mxCell>
        <mxCell id="RPcu0X67-Fc-buNzQXgX-8" style="edgeStyle=orthogonalEdgeStyle;rounded=0;orthogonalLoop=1;jettySize=auto;html=1;entryX=0;entryY=0.5;entryDx=0;entryDy=0;" edge="1" parent="1" source="RPcu0X67-Fc-buNzQXgX-4" target="RPcu0X67-Fc-buNzQXgX-6">
          <mxGeometry relative="1" as="geometry" />
        </mxCell>
        <mxCell id="RPcu0X67-Fc-buNzQXgX-4" value="Read Keypad" style="rounded=1;whiteSpace=wrap;html=1;" vertex="1" parent="1">
          <mxGeometry x="425" y="220" width="120" height="60" as="geometry" />
        </mxCell>
        <mxCell id="RPcu0X67-Fc-buNzQXgX-35" style="edgeStyle=orthogonalEdgeStyle;rounded=0;orthogonalLoop=1;jettySize=auto;html=1;exitX=0.5;exitY=1;exitDx=0;exitDy=0;entryX=0.5;entryY=0;entryDx=0;entryDy=0;" edge="1" parent="1" source="RPcu0X67-Fc-buNzQXgX-5" target="RPcu0X67-Fc-buNzQXgX-30">
          <mxGeometry relative="1" as="geometry" />
        </mxCell>
        <mxCell id="RPcu0X67-Fc-buNzQXgX-5" value="Trigger Echo" style="rounded=1;whiteSpace=wrap;html=1;" vertex="1" parent="1">
          <mxGeometry x="360" y="380" width="120" height="60" as="geometry" />
        </mxCell>
        <mxCell id="RPcu0X67-Fc-buNzQXgX-19" style="edgeStyle=orthogonalEdgeStyle;rounded=0;orthogonalLoop=1;jettySize=auto;html=1;exitX=1;exitY=0.5;exitDx=0;exitDy=0;entryX=0;entryY=0.5;entryDx=0;entryDy=0;" edge="1" parent="1" source="RPcu0X67-Fc-buNzQXgX-6" target="RPcu0X67-Fc-buNzQXgX-10">
          <mxGeometry relative="1" as="geometry" />
        </mxCell>
        <mxCell id="RPcu0X67-Fc-buNzQXgX-6" value="key = ?" style="rhombus;whiteSpace=wrap;html=1;" vertex="1" parent="1">
          <mxGeometry x="610" y="210" width="80" height="80" as="geometry" />
        </mxCell>
        <mxCell id="RPcu0X67-Fc-buNzQXgX-10" value="Red LED ON" style="rounded=1;whiteSpace=wrap;html=1;" vertex="1" parent="1">
          <mxGeometry x="730" y="220" width="120" height="60" as="geometry" />
        </mxCell>
        <mxCell id="RPcu0X67-Fc-buNzQXgX-11" value="Blue LED ON" style="rounded=1;whiteSpace=wrap;html=1;" vertex="1" parent="1">
          <mxGeometry x="660" y="310" width="120" height="60" as="geometry" />
        </mxCell>
        <mxCell id="RPcu0X67-Fc-buNzQXgX-12" value="Green LED ON" style="rounded=1;whiteSpace=wrap;html=1;" vertex="1" parent="1">
          <mxGeometry x="520" y="310" width="120" height="60" as="geometry" />
        </mxCell>
        <mxCell id="RPcu0X67-Fc-buNzQXgX-15" value="" style="endArrow=none;html=1;rounded=0;" edge="1" parent="1">
          <mxGeometry width="50" height="50" relative="1" as="geometry">
            <mxPoint x="580" y="270" as="sourcePoint" />
            <mxPoint x="630" y="270" as="targetPoint" />
          </mxGeometry>
        </mxCell>
        <mxCell id="RPcu0X67-Fc-buNzQXgX-16" value="" style="endArrow=classic;html=1;rounded=0;entryX=0.5;entryY=0;entryDx=0;entryDy=0;" edge="1" parent="1" target="RPcu0X67-Fc-buNzQXgX-12">
          <mxGeometry width="50" height="50" relative="1" as="geometry">
            <mxPoint x="580" y="270" as="sourcePoint" />
            <mxPoint x="630" y="220" as="targetPoint" />
          </mxGeometry>
        </mxCell>
        <mxCell id="RPcu0X67-Fc-buNzQXgX-17" value="" style="endArrow=none;html=1;rounded=0;" edge="1" parent="1">
          <mxGeometry width="50" height="50" relative="1" as="geometry">
            <mxPoint x="670" y="270" as="sourcePoint" />
            <mxPoint x="720" y="270" as="targetPoint" />
          </mxGeometry>
        </mxCell>
        <mxCell id="RPcu0X67-Fc-buNzQXgX-18" value="" style="endArrow=classic;html=1;rounded=0;entryX=0.5;entryY=0;entryDx=0;entryDy=0;" edge="1" parent="1">
          <mxGeometry width="50" height="50" relative="1" as="geometry">
            <mxPoint x="719.5" y="270" as="sourcePoint" />
            <mxPoint x="719.5" y="310" as="targetPoint" />
          </mxGeometry>
        </mxCell>
        <mxCell id="RPcu0X67-Fc-buNzQXgX-22" value="Key = B" style="text;html=1;align=center;verticalAlign=middle;whiteSpace=wrap;rounded=0;" vertex="1" parent="1">
          <mxGeometry x="670" y="210" width="60" height="30" as="geometry" />
        </mxCell>
        <mxCell id="RPcu0X67-Fc-buNzQXgX-23" value="Key = C" style="text;html=1;align=center;verticalAlign=middle;whiteSpace=wrap;rounded=0;" vertex="1" parent="1">
          <mxGeometry x="580" y="280" width="60" height="30" as="geometry" />
        </mxCell>
        <mxCell id="RPcu0X67-Fc-buNzQXgX-24" value="Key = D" style="text;html=1;align=center;verticalAlign=middle;whiteSpace=wrap;rounded=0;" vertex="1" parent="1">
          <mxGeometry x="660" y="280" width="60" height="30" as="geometry" />
        </mxCell>
        <mxCell id="RPcu0X67-Fc-buNzQXgX-26" value="" style="endArrow=none;html=1;rounded=0;" edge="1" parent="1">
          <mxGeometry width="50" height="50" relative="1" as="geometry">
            <mxPoint x="490" y="300" as="sourcePoint" />
            <mxPoint x="490" y="280" as="targetPoint" />
          </mxGeometry>
        </mxCell>
        <mxCell id="RPcu0X67-Fc-buNzQXgX-27" value="" style="endArrow=none;html=1;rounded=0;" edge="1" parent="1">
          <mxGeometry width="50" height="50" relative="1" as="geometry">
            <mxPoint x="420" y="300" as="sourcePoint" />
            <mxPoint x="490" y="300" as="targetPoint" />
          </mxGeometry>
        </mxCell>
        <mxCell id="RPcu0X67-Fc-buNzQXgX-29" value="" style="endArrow=classic;html=1;rounded=0;entryX=0.5;entryY=0;entryDx=0;entryDy=0;" edge="1" parent="1" target="RPcu0X67-Fc-buNzQXgX-5">
          <mxGeometry width="50" height="50" relative="1" as="geometry">
            <mxPoint x="420" y="300" as="sourcePoint" />
            <mxPoint x="380" y="320" as="targetPoint" />
          </mxGeometry>
        </mxCell>
        <mxCell id="RPcu0X67-Fc-buNzQXgX-32" style="edgeStyle=orthogonalEdgeStyle;rounded=0;orthogonalLoop=1;jettySize=auto;html=1;exitX=1;exitY=0.5;exitDx=0;exitDy=0;entryX=0;entryY=0.5;entryDx=0;entryDy=0;" edge="1" parent="1" source="RPcu0X67-Fc-buNzQXgX-30" target="RPcu0X67-Fc-buNzQXgX-31">
          <mxGeometry relative="1" as="geometry" />
        </mxCell>
        <mxCell id="RPcu0X67-Fc-buNzQXgX-38" style="edgeStyle=orthogonalEdgeStyle;rounded=0;orthogonalLoop=1;jettySize=auto;html=1;exitX=0.5;exitY=1;exitDx=0;exitDy=0;entryX=0.5;entryY=0;entryDx=0;entryDy=0;" edge="1" parent="1" source="RPcu0X67-Fc-buNzQXgX-30" target="RPcu0X67-Fc-buNzQXgX-37">
          <mxGeometry relative="1" as="geometry" />
        </mxCell>
        <mxCell id="RPcu0X67-Fc-buNzQXgX-30" value="Echo Received?" style="rhombus;whiteSpace=wrap;html=1;" vertex="1" parent="1">
          <mxGeometry x="360" y="460" width="120" height="80" as="geometry" />
        </mxCell>
        <mxCell id="RPcu0X67-Fc-buNzQXgX-31" value="Increment Count" style="rounded=1;whiteSpace=wrap;html=1;" vertex="1" parent="1">
          <mxGeometry x="540" y="470" width="120" height="60" as="geometry" />
        </mxCell>
        <mxCell id="RPcu0X67-Fc-buNzQXgX-33" value="" style="endArrow=none;html=1;rounded=0;" edge="1" parent="1">
          <mxGeometry width="50" height="50" relative="1" as="geometry">
            <mxPoint x="600" y="470" as="sourcePoint" />
            <mxPoint x="600" y="410" as="targetPoint" />
          </mxGeometry>
        </mxCell>
        <mxCell id="RPcu0X67-Fc-buNzQXgX-34" value="" style="endArrow=classic;html=1;rounded=0;entryX=1;entryY=0.5;entryDx=0;entryDy=0;" edge="1" parent="1" target="RPcu0X67-Fc-buNzQXgX-5">
          <mxGeometry width="50" height="50" relative="1" as="geometry">
            <mxPoint x="600" y="410" as="sourcePoint" />
            <mxPoint x="650" y="360" as="targetPoint" />
          </mxGeometry>
        </mxCell>
        <mxCell id="RPcu0X67-Fc-buNzQXgX-36" value="No" style="text;html=1;align=center;verticalAlign=middle;resizable=0;points=[];autosize=1;strokeColor=none;fillColor=none;" vertex="1" parent="1">
          <mxGeometry x="490" y="480" width="40" height="30" as="geometry" />
        </mxCell>
        <mxCell id="RPcu0X67-Fc-buNzQXgX-41" style="edgeStyle=orthogonalEdgeStyle;rounded=0;orthogonalLoop=1;jettySize=auto;html=1;exitX=0.5;exitY=1;exitDx=0;exitDy=0;entryX=0.5;entryY=0;entryDx=0;entryDy=0;" edge="1" parent="1" source="RPcu0X67-Fc-buNzQXgX-37" target="RPcu0X67-Fc-buNzQXgX-40">
          <mxGeometry relative="1" as="geometry" />
        </mxCell>
        <mxCell id="RPcu0X67-Fc-buNzQXgX-37" value="Calculate Distance" style="rounded=1;whiteSpace=wrap;html=1;" vertex="1" parent="1">
          <mxGeometry x="360" y="560" width="120" height="60" as="geometry" />
        </mxCell>
        <mxCell id="RPcu0X67-Fc-buNzQXgX-39" value="Yes" style="text;html=1;align=center;verticalAlign=middle;resizable=0;points=[];autosize=1;strokeColor=none;fillColor=none;" vertex="1" parent="1">
          <mxGeometry x="425" y="535" width="40" height="30" as="geometry" />
        </mxCell>
        <mxCell id="RPcu0X67-Fc-buNzQXgX-44" style="edgeStyle=orthogonalEdgeStyle;rounded=0;orthogonalLoop=1;jettySize=auto;html=1;exitX=0;exitY=0.5;exitDx=0;exitDy=0;entryX=1;entryY=0.5;entryDx=0;entryDy=0;" edge="1" parent="1" source="RPcu0X67-Fc-buNzQXgX-40" target="RPcu0X67-Fc-buNzQXgX-42">
          <mxGeometry relative="1" as="geometry" />
        </mxCell>
        <mxCell id="RPcu0X67-Fc-buNzQXgX-45" style="edgeStyle=orthogonalEdgeStyle;rounded=0;orthogonalLoop=1;jettySize=auto;html=1;exitX=1;exitY=0.5;exitDx=0;exitDy=0;entryX=0;entryY=0.5;entryDx=0;entryDy=0;" edge="1" parent="1" source="RPcu0X67-Fc-buNzQXgX-40" target="RPcu0X67-Fc-buNzQXgX-43">
          <mxGeometry relative="1" as="geometry" />
        </mxCell>
        <mxCell id="RPcu0X67-Fc-buNzQXgX-40" value="Distance &amp;gt; 5?" style="rhombus;whiteSpace=wrap;html=1;" vertex="1" parent="1">
          <mxGeometry x="360" y="640" width="120" height="80" as="geometry" />
        </mxCell>
        <mxCell id="RPcu0X67-Fc-buNzQXgX-50" style="edgeStyle=orthogonalEdgeStyle;rounded=0;orthogonalLoop=1;jettySize=auto;html=1;exitX=0;exitY=0.5;exitDx=0;exitDy=0;entryX=1;entryY=0.5;entryDx=0;entryDy=0;" edge="1" parent="1" source="RPcu0X67-Fc-buNzQXgX-42" target="RPcu0X67-Fc-buNzQXgX-48">
          <mxGeometry relative="1" as="geometry" />
        </mxCell>
        <mxCell id="RPcu0X67-Fc-buNzQXgX-42" value="What is key?" style="rhombus;whiteSpace=wrap;html=1;" vertex="1" parent="1">
          <mxGeometry x="170" y="640" width="120" height="80" as="geometry" />
        </mxCell>
        <mxCell id="RPcu0X67-Fc-buNzQXgX-51" style="edgeStyle=orthogonalEdgeStyle;rounded=0;orthogonalLoop=1;jettySize=auto;html=1;exitX=1;exitY=0.5;exitDx=0;exitDy=0;entryX=0;entryY=0.5;entryDx=0;entryDy=0;" edge="1" parent="1" source="RPcu0X67-Fc-buNzQXgX-43" target="RPcu0X67-Fc-buNzQXgX-49">
          <mxGeometry relative="1" as="geometry" />
        </mxCell>
        <mxCell id="RPcu0X67-Fc-buNzQXgX-43" value="What is key?" style="rhombus;whiteSpace=wrap;html=1;" vertex="1" parent="1">
          <mxGeometry x="540" y="640" width="120" height="80" as="geometry" />
        </mxCell>
        <mxCell id="RPcu0X67-Fc-buNzQXgX-46" value="Yes" style="text;html=1;align=center;verticalAlign=middle;resizable=0;points=[];autosize=1;strokeColor=none;fillColor=none;" vertex="1" parent="1">
          <mxGeometry x="310" y="650" width="40" height="30" as="geometry" />
        </mxCell>
        <mxCell id="RPcu0X67-Fc-buNzQXgX-47" value="No" style="text;html=1;align=center;verticalAlign=middle;resizable=0;points=[];autosize=1;strokeColor=none;fillColor=none;" vertex="1" parent="1">
          <mxGeometry x="490" y="660" width="40" height="30" as="geometry" />
        </mxCell>
        <mxCell id="RPcu0X67-Fc-buNzQXgX-48" value="Buzzer ON" style="rounded=1;whiteSpace=wrap;html=1;" vertex="1" parent="1">
          <mxGeometry y="650" width="120" height="60" as="geometry" />
        </mxCell>
        <mxCell id="RPcu0X67-Fc-buNzQXgX-49" value="Buzzer ON" style="rounded=1;whiteSpace=wrap;html=1;" vertex="1" parent="1">
          <mxGeometry x="710" y="650" width="120" height="60" as="geometry" />
        </mxCell>
        <mxCell id="RPcu0X67-Fc-buNzQXgX-52" value="Buzzer OFF" style="rounded=1;whiteSpace=wrap;html=1;" vertex="1" parent="1">
          <mxGeometry x="70" y="740" width="120" height="60" as="geometry" />
        </mxCell>
        <mxCell id="RPcu0X67-Fc-buNzQXgX-53" value="Buzzer OFF" style="rounded=1;whiteSpace=wrap;html=1;" vertex="1" parent="1">
          <mxGeometry x="640" y="740" width="120" height="60" as="geometry" />
        </mxCell>
        <mxCell id="RPcu0X67-Fc-buNzQXgX-54" value="key = B" style="text;html=1;align=center;verticalAlign=middle;resizable=0;points=[];autosize=1;strokeColor=none;fillColor=none;" vertex="1" parent="1">
          <mxGeometry x="650" y="648" width="60" height="30" as="geometry" />
        </mxCell>
        <mxCell id="RPcu0X67-Fc-buNzQXgX-55" value="key = C" style="text;html=1;align=center;verticalAlign=middle;resizable=0;points=[];autosize=1;strokeColor=none;fillColor=none;" vertex="1" parent="1">
          <mxGeometry x="120" y="650" width="60" height="30" as="geometry" />
        </mxCell>
        <mxCell id="RPcu0X67-Fc-buNzQXgX-56" value="Key = A or B" style="text;html=1;align=center;verticalAlign=middle;resizable=0;points=[];autosize=1;strokeColor=none;fillColor=none;" vertex="1" parent="1">
          <mxGeometry x="140" y="710" width="90" height="30" as="geometry" />
        </mxCell>
        <mxCell id="RPcu0X67-Fc-buNzQXgX-59" value="" style="endArrow=classic;html=1;rounded=0;exitX=1;exitY=1;exitDx=0;exitDy=0;entryX=0.5;entryY=0;entryDx=0;entryDy=0;" edge="1" parent="1" source="RPcu0X67-Fc-buNzQXgX-43" target="RPcu0X67-Fc-buNzQXgX-53">
          <mxGeometry width="50" height="50" relative="1" as="geometry">
            <mxPoint x="600" y="790" as="sourcePoint" />
            <mxPoint x="650" y="740" as="targetPoint" />
          </mxGeometry>
        </mxCell>
        <mxCell id="RPcu0X67-Fc-buNzQXgX-60" value="" style="endArrow=classic;html=1;rounded=0;exitX=0;exitY=1;exitDx=0;exitDy=0;entryX=0.5;entryY=0;entryDx=0;entryDy=0;" edge="1" parent="1" source="RPcu0X67-Fc-buNzQXgX-42" target="RPcu0X67-Fc-buNzQXgX-52">
          <mxGeometry width="50" height="50" relative="1" as="geometry">
            <mxPoint x="260" y="780" as="sourcePoint" />
            <mxPoint x="310" y="730" as="targetPoint" />
          </mxGeometry>
        </mxCell>
        <mxCell id="RPcu0X67-Fc-buNzQXgX-61" value="key = A or C" style="text;html=1;align=center;verticalAlign=middle;resizable=0;points=[];autosize=1;strokeColor=none;fillColor=none;" vertex="1" parent="1">
          <mxGeometry x="600" y="710" width="90" height="30" as="geometry" />
        </mxCell>
        <mxCell id="RPcu0X67-Fc-buNzQXgX-68" style="edgeStyle=orthogonalEdgeStyle;rounded=0;orthogonalLoop=1;jettySize=auto;html=1;exitX=0.5;exitY=1;exitDx=0;exitDy=0;entryX=0.5;entryY=0;entryDx=0;entryDy=0;" edge="1" parent="1" source="RPcu0X67-Fc-buNzQXgX-63" target="RPcu0X67-Fc-buNzQXgX-66">
          <mxGeometry relative="1" as="geometry" />
        </mxCell>
        <mxCell id="RPcu0X67-Fc-buNzQXgX-63" value="Calculate Delay" style="rounded=1;whiteSpace=wrap;html=1;" vertex="1" parent="1">
          <mxGeometry x="360" y="750" width="120" height="60" as="geometry" />
        </mxCell>
        <mxCell id="RPcu0X67-Fc-buNzQXgX-64" value="" style="endArrow=classic;html=1;rounded=0;exitX=1;exitY=1;exitDx=0;exitDy=0;entryX=0.5;entryY=0;entryDx=0;entryDy=0;" edge="1" parent="1" source="RPcu0X67-Fc-buNzQXgX-42" target="RPcu0X67-Fc-buNzQXgX-63">
          <mxGeometry width="50" height="50" relative="1" as="geometry">
            <mxPoint x="280" y="770" as="sourcePoint" />
            <mxPoint x="330" y="720" as="targetPoint" />
          </mxGeometry>
        </mxCell>
        <mxCell id="RPcu0X67-Fc-buNzQXgX-65" value="" style="endArrow=classic;html=1;rounded=0;exitX=0;exitY=1;exitDx=0;exitDy=0;entryX=0.5;entryY=0;entryDx=0;entryDy=0;" edge="1" parent="1" source="RPcu0X67-Fc-buNzQXgX-43" target="RPcu0X67-Fc-buNzQXgX-63">
          <mxGeometry width="50" height="50" relative="1" as="geometry">
            <mxPoint x="510" y="870" as="sourcePoint" />
            <mxPoint x="560" y="820" as="targetPoint" />
          </mxGeometry>
        </mxCell>
        <mxCell id="RPcu0X67-Fc-buNzQXgX-69" style="edgeStyle=orthogonalEdgeStyle;rounded=0;orthogonalLoop=1;jettySize=auto;html=1;exitX=0.5;exitY=1;exitDx=0;exitDy=0;entryX=0.5;entryY=0;entryDx=0;entryDy=0;" edge="1" parent="1" source="RPcu0X67-Fc-buNzQXgX-66" target="RPcu0X67-Fc-buNzQXgX-67">
          <mxGeometry relative="1" as="geometry" />
        </mxCell>
        <mxCell id="RPcu0X67-Fc-buNzQXgX-66" value="Delay" style="rounded=1;whiteSpace=wrap;html=1;" vertex="1" parent="1">
          <mxGeometry x="360" y="830" width="120" height="60" as="geometry" />
        </mxCell>
        <mxCell id="RPcu0X67-Fc-buNzQXgX-73" style="edgeStyle=orthogonalEdgeStyle;rounded=0;orthogonalLoop=1;jettySize=auto;html=1;exitX=0.5;exitY=1;exitDx=0;exitDy=0;entryX=0.5;entryY=0;entryDx=0;entryDy=0;" edge="1" parent="1" source="RPcu0X67-Fc-buNzQXgX-67" target="RPcu0X67-Fc-buNzQXgX-72">
          <mxGeometry relative="1" as="geometry" />
        </mxCell>
        <mxCell id="RPcu0X67-Fc-buNzQXgX-67" value="Toggle Buzzer" style="rounded=1;whiteSpace=wrap;html=1;" vertex="1" parent="1">
          <mxGeometry x="360" y="910" width="120" height="60" as="geometry" />
        </mxCell>
        <mxCell id="RPcu0X67-Fc-buNzQXgX-70" value="" style="endArrow=none;html=1;rounded=0;" edge="1" parent="1">
          <mxGeometry width="50" height="50" relative="1" as="geometry">
            <mxPoint x="130" y="1030" as="sourcePoint" />
            <mxPoint x="130" y="800" as="targetPoint" />
          </mxGeometry>
        </mxCell>
        <mxCell id="RPcu0X67-Fc-buNzQXgX-72" value="Drive LED Bar" style="rounded=1;whiteSpace=wrap;html=1;" vertex="1" parent="1">
          <mxGeometry x="360" y="1000" width="120" height="60" as="geometry" />
        </mxCell>
        <mxCell id="RPcu0X67-Fc-buNzQXgX-74" value="" style="endArrow=classic;html=1;rounded=0;entryX=0;entryY=0.5;entryDx=0;entryDy=0;" edge="1" parent="1" target="RPcu0X67-Fc-buNzQXgX-72">
          <mxGeometry width="50" height="50" relative="1" as="geometry">
            <mxPoint x="130" y="1030" as="sourcePoint" />
            <mxPoint x="180" y="980" as="targetPoint" />
          </mxGeometry>
        </mxCell>
        <mxCell id="RPcu0X67-Fc-buNzQXgX-75" value="" style="endArrow=none;html=1;rounded=0;" edge="1" parent="1">
          <mxGeometry width="50" height="50" relative="1" as="geometry">
            <mxPoint x="709.1999999999999" y="1030" as="sourcePoint" />
            <mxPoint x="709.1999999999999" y="800" as="targetPoint" />
          </mxGeometry>
        </mxCell>
        <mxCell id="RPcu0X67-Fc-buNzQXgX-76" value="" style="endArrow=classic;html=1;rounded=0;entryX=0;entryY=0.5;entryDx=0;entryDy=0;" edge="1" parent="1">
          <mxGeometry width="50" height="50" relative="1" as="geometry">
            <mxPoint x="710" y="1029.6" as="sourcePoint" />
            <mxPoint x="480" y="1029.6" as="targetPoint" />
          </mxGeometry>
        </mxCell>
        <mxCell id="RPcu0X67-Fc-buNzQXgX-77" value="" style="endArrow=none;html=1;rounded=0;" edge="1" parent="1">
          <mxGeometry width="50" height="50" relative="1" as="geometry">
            <mxPoint x="420" y="1100" as="sourcePoint" />
            <mxPoint x="420" y="1060" as="targetPoint" />
          </mxGeometry>
        </mxCell>
        <mxCell id="RPcu0X67-Fc-buNzQXgX-78" value="" style="endArrow=none;html=1;rounded=0;" edge="1" parent="1">
          <mxGeometry width="50" height="50" relative="1" as="geometry">
            <mxPoint x="420" y="1100" as="sourcePoint" />
            <mxPoint x="880" y="1100" as="targetPoint" />
          </mxGeometry>
        </mxCell>
        <mxCell id="RPcu0X67-Fc-buNzQXgX-79" value="" style="endArrow=none;html=1;rounded=0;" edge="1" parent="1">
          <mxGeometry width="50" height="50" relative="1" as="geometry">
            <mxPoint x="880" y="1100" as="sourcePoint" />
            <mxPoint x="880" y="169" as="targetPoint" />
          </mxGeometry>
        </mxCell>
        <mxCell id="RPcu0X67-Fc-buNzQXgX-80" value="" style="endArrow=classic;html=1;rounded=0;entryX=1;entryY=0.5;entryDx=0;entryDy=0;" edge="1" parent="1" target="RPcu0X67-Fc-buNzQXgX-2">
          <mxGeometry width="50" height="50" relative="1" as="geometry">
            <mxPoint x="880" y="170" as="sourcePoint" />
            <mxPoint x="930" y="120" as="targetPoint" />
          </mxGeometry>
        </mxCell>
      </root>
    </mxGraphModel>
  </diagram>
</mxfile>
